<?xml version="1.0" encoding="UTF-8"?>
<!DOCTYPE svg PUBLIC "-//W3C//DTD SVG 1.1//EN" "http://www.w3.org/Graphics/SVG/1.1/DTD/svg11.dtd">
<!-- Creator: CorelDRAW -->
<svg xmlns="http://www.w3.org/2000/svg" xml:space="preserve" width="552px" height="158px" version="1.1" style="shape-rendering:geometricPrecision; text-rendering:geometricPrecision; image-rendering:optimizeQuality; fill-rule:evenodd; clip-rule:evenodd"
viewBox="0 0 535.93 153.17"
 xmlns:xlink="http://www.w3.org/1999/xlink"
 xmlns:xodm="http://www.corel.com/coreldraw/odm/2003">
 <defs>
  <style type="text/css">
   <![CDATA[
    .str0 {stroke:#FEFEFE;stroke-width:1.94;stroke-miterlimit:22.9256;stroke-opacity:0.050980}
    .str1 {stroke:#FEFEFE;stroke-width:1.94;stroke-miterlimit:22.9256}
    .str2 {stroke:#FEFEFE;stroke-width:1.94;stroke-miterlimit:22.9256}
    .str3 {stroke:#373435;stroke-width:0.87;stroke-miterlimit:22.9256}
    .fil3 {fill:none;fill-rule:nonzero}
    .fil1 {fill:#FEFEFE}
    .fil7 {fill:#FEFEFE}
    .fil5 {fill:#0A7BA3;fill-rule:nonzero}
    .fil2 {fill:#103A4E;fill-rule:nonzero}
    .fil6 {fill:#110363;fill-rule:nonzero}
    .fil0 {fill:#FEFEFE;fill-rule:nonzero;fill-opacity:0.050980}
    .fil4 {fill:#FEFEFE}
   ]]>
  </style>
 </defs>
 <g id="Capa_x0020_1">
  <metadata id="CorelCorpID_0Corel-Layer"/>
  <path class="fil0 str0" d="M63.97 82.21l-0.05 0.06 8.04 0.71c2.57,0.23 5.69,0.5 9.29,0.83 4.72,0.35 9.17,0.75 13.3,1.2 11.73,1.27 19.87,2.98 27.1,4.5 6.59,1.38 12.85,2.7 20.22,3.37 21.45,1.96 38.1,1.89 52.65,1.83 6.66,-0.03 13.23,-0.06 19.85,0.11 2.79,0.05 5.34,0.1 7.82,0.17 15.89,0.21 33.93,2.75 52.45,5.36 7.69,1.08 15.53,2.19 22.78,3.05 6.38,0.76 11.06,1 15.87,1.25 1.91,0.1 3.87,0.19 5.92,0.33 4.26,0.31 6.87,0.54 6.9,0.54l-0.14 -0.05c-0.03,0 -2.65,-0.23 -6.92,-0.54 -2.07,-0.14 -4.03,-0.24 -5.94,-0.34 -4.79,-0.24 -9.44,-0.48 -15.75,-1.23 -7.21,-0.86 -15.03,-1.97 -22.7,-3.05 -18.59,-2.62 -36.7,-5.17 -52.72,-5.39 -2.47,-0.06 -5.03,-0.11 -7.81,-0.16 -6.64,-0.18 -13.23,-0.15 -19.9,-0.12 -14.5,0.06 -31.09,0.13 -52.35,-1.82 -7.14,-0.65 -13.32,-1.95 -19.83,-3.32 -7.28,-1.53 -15.47,-3.25 -27.38,-4.54 -4.18,-0.45 -8.69,-0.86 -13.43,-1.21 -3.56,-0.32 -6.67,-0.6 -9.24,-0.83l-8.03 -0.71z"/>
  <path class="fil0 str0" d="M66.4 79.41l-0.04 0.04 27.85 2.59c1.71,0.16 3.59,0.32 5.57,0.48 4.91,0.41 9.91,0.82 11.61,1.22 39.01,7.05 73.46,8.18 101.51,9.1l1.75 0.06c2.77,0.15 5.28,0.3 7.7,0.45 17.29,0.95 37.12,3.71 57.09,6.61 10.15,1.45 16.34,1.66 22.62,1.87 4.2,0.14 8.41,0.28 13.89,0.82 2.06,0.19 3.21,0.3 3.22,0.3l-0.12 -0.05c-0.01,0 -1.16,-0.1 -3.22,-0.29 -5.52,-0.55 -9.75,-0.7 -13.97,-0.84 -6.24,-0.21 -12.38,-0.41 -22.39,-1.84 -20.03,-2.91 -39.9,-5.68 -57.29,-6.64 -2.41,-0.15 -4.94,-0.3 -7.73,-0.45l-1.78 -0.05c-27.94,-0.93 -62.23,-2.06 -100.91,-9.05 -1.83,-0.43 -6.96,-0.85 -12.02,-1.27 -1.97,-0.17 -3.84,-0.32 -5.51,-0.48l-27.83 -2.58z"/>
  <path class="fil0 str0" d="M68.61 76.87l-0.04 0.04 26.48 2.57c3.97,0.38 8.27,0.8 12.86,1.24 43.49,5.21 76.42,8.35 106.33,10.3 2.97,0.27 6.03,0.55 9.05,0.83 15.85,1.52 31.43,3.18 47.72,5.09 6.52,0.74 11.66,1.08 16.95,1.42 2.23,0.15 4.52,0.3 6.88,0.48 3.1,0.3 5.54,0.54 8.41,0.79l9.42 0.91 -0.11 -0.04 -9.43 -0.92c-2.87,-0.25 -5.3,-0.48 -8.42,-0.79 -2.39,-0.18 -4.68,-0.33 -6.92,-0.48 -5.26,-0.34 -10.37,-0.68 -16.84,-1.41 -16.29,-1.91 -31.88,-3.58 -47.74,-5.1 -3.03,-0.28 -6.09,-0.56 -9.1,-0.83 -29.87,-1.96 -62.71,-5.09 -106.14,-10.29 -4.64,-0.45 -8.94,-0.87 -12.9,-1.25l-26.46 -2.56z"/>
  <path class="fil0 str0" d="M70.61 74.56l-0.04 0.04 55.56 5.58c2.17,0.21 4.38,0.44 6.61,0.66 21.04,2.24 39.95,4.09 58.73,5.92 3.02,0.3 6.02,0.59 9.02,0.88 2.71,0.28 5.39,0.55 8.06,0.81 5.26,0.53 10.42,1.05 15.51,1.56 2.51,0.25 5,0.5 7.47,0.74 15.82,1.64 30.02,3.06 43.49,4.36l31.55 3.17 -0.11 -0.04 -31.54 -3.17c-13.46,-1.3 -27.65,-2.72 -43.46,-4.36 -2.48,-0.25 -4.96,-0.5 -7.47,-0.75 -5.09,-0.5 -10.25,-1.02 -15.51,-1.55 -2.66,-0.27 -5.34,-0.54 -8.06,-0.81 -3,-0.29 -6,-0.59 -9.01,-0.88 -18.76,-1.83 -37.66,-3.68 -58.67,-5.92 -2.24,-0.23 -4.45,-0.45 -6.62,-0.67l-55.51 -5.57z"/>
  <path class="fil1 str1" d="M324.9 10.48c1.78,-5.04 6.49,-8.58 12.24,-8.58l18.45 0c5.49,0 10.11,2.92 12.97,7.54l9.19 14.86 0 -9.35c0,-7.32 5.69,-13.05 13.04,-13.05l15.85 0c2.07,0 4.06,0.5 5.84,1.39 1.92,-1.1 4.19,-1.72 6.68,-1.72l29.57 0c18.51,0 35.53,10.6 45.19,26.15 5.05,8.14 7.56,17.18 7.56,26.75 0,28.63 -24.12,52.79 -52.75,52.79l-29.57 0c-2.14,0 -4.12,-0.46 -5.86,-1.29 -1.94,1.05 -4.2,1.62 -6.66,1.62l-16.68 0c-5.52,0 -10.21,-2.86 -13.06,-7.54l-10.58 -17.4 0 11.95c0,7.6 -5.77,12.99 -13.27,12.99l-15.91 0c-2.5,0 -4.78,-0.62 -6.71,-1.72 -2.05,1.33 -4.55,2.08 -7.31,2.08l-11.66 0c-3.45,0 -6.2,-1.07 -8.3,-2.98 -4.96,2.46 -10.48,3.73 -16.39,3.73 -17.81,0 -32.78,-9.88 -40.39,-24.4l0 9.77c0,7.46 -5.52,13 -12.99,13 -6.99,0 -14.84,-0.4 -21.48,-2.61 -7.16,-2.37 -11.46,-6.61 -12.98,-11.65 -8.3,10.09 -20.8,16.5 -35.15,16.5 -5.79,0 -11.19,-1.21 -16.06,-3.56 -2.36,1.8 -5.32,2.81 -8.64,2.81l-11.66 0c-3.59,0 -6.72,-1.27 -9.01,-3.42 -2.37,2.65 -5.9,4.27 -9.96,4.27l-11.91 0c-7.49,0 -13.08,-3.1 -15.99,-8.81 -2.06,5.48 -6.17,8.81 -12.42,8.81l-14.47 0c-5.42,0 -9.5,-3.2 -11.85,-7.72 -1.97,4.68 -6.32,7.72 -11.9,7.72l-12.86 0c-4.94,0 -9.38,-1.73 -12.48,-5.72 -3.65,-4.71 -3.96,-10.85 -3.36,-16.54l7.84 -73.42c0.74,-6.97 5.82,-11.99 12.96,-11.99l20.43 0c6.53,0 10.47,3.85 12.47,9.73 0.04,0.12 0.07,0.21 0.1,0.33l5.89 19.38 5.88 -19.38c0.03,-0.12 0.06,-0.21 0.1,-0.33 2,-5.88 5.94,-9.73 12.47,-9.73l20.43 0c7.14,0 12.22,5.02 12.97,11.99l1.73 16.23c0.02,-0.88 0.13,-1.76 0.31,-2.63 0.67,-6.43 5.22,-11.99 10.25,-15.79 6.52,-4.93 14.65,-7.71 22.72,-8.65 9.02,-1.06 20.34,-0.67 26.97,6.51 0.6,0.65 1.14,1.33 1.61,2.03 0.09,-0.72 0.24,-1.45 0.47,-2.17 1.61,-5.09 6.27,-8.29 11.55,-8.29l19.63 0c5.88,0 10.09,3.16 12.72,8.26 0.06,0.12 0.11,0.22 0.17,0.34l3.94 8.4 3.88 -8.35c0.07,-0.14 0.12,-0.26 0.19,-0.39 2.63,-5.1 6.86,-8.26 12.74,-8.26l19.86 0c6.29,0 11.63,4.22 12.36,10.41 0.55,-0.91 1.21,-1.78 1.97,-2.6 6.63,-7.17 17.94,-7.56 26.96,-6.51 7.83,0.92 15.7,3.56 22.12,8.21z"/>
  <path class="fil2 str2" d="M224.6 82.25c-4.13,-3.28 -7.8,-6.24 -11.84,-1.75 -14.38,15.92 14.02,16.09 20.63,16.09 1.67,0 2.51,-0.84 2.51,-2.52l0 -32.29 27.21 -47.75c0.23,-0.48 0.35,-0.9 0.35,-1.2 0,-0.9 -0.77,-1.38 -1.97,-1.38l-19.86 0c-1.63,0 -2.47,0.73 -3.42,2.58l-13.33 28.7 -13.49 -28.7c-0.95,-1.85 -1.77,-2.58 -3.4,-2.58l-19.63 0c-1.51,0 -2.37,1.22 -0.8,4.01l26.22 46.45 10.82 20.34z"/>
  <path class="fil2 str2" d="M124.95 95.63c0,1.65 0.81,2.46 2.47,2.46l11.66 0c4.84,0 3.78,-6.12 4.64,-8.51 5.04,5.94 11.77,9.26 20.06,9.26 19.98,0 35.31,-16.06 35.31,-36.08 0,-7.01 -1.62,-13.26 -4.88,-18.7 -6.45,-10.74 -17.78,-17.27 -30.43,-17.27 -7.32,0 -13.92,2.99 -19.03,8.29 -0.26,-3.54 -1.86,-4.95 -6.39,-7.14 2.29,-1.63 4.84,-3.27 7.78,-4.2 7.85,-2.48 14.37,4.77 20.08,0.5 4.87,-3.65 3.05,-13.32 -17.24,-10.95 -15.15,1.77 -23.93,10.59 -23.79,15.79 -0.16,0.36 -0.24,0.79 -0.24,1.32l0 65.23zm6.7 -18.57c0.43,-0.63 1.29,-0.79 1.92,-0.36 0.63,0.44 0.79,1.3 0.36,1.93 -0.43,0.63 -1.29,0.79 -1.92,0.36 -0.63,-0.44 -0.79,-1.3 -0.36,-1.93zm7.69 1.25c0.43,-0.63 1.29,-0.79 1.92,-0.36 0.63,0.43 0.79,1.29 0.36,1.93 -0.43,0.63 -1.29,0.79 -1.92,0.35 -0.63,-0.43 -0.79,-1.29 -0.36,-1.92zm-5.35 5.72c0.43,-0.63 1.29,-0.8 1.92,-0.36 0.63,0.43 0.79,1.29 0.36,1.92 -0.43,0.63 -1.29,0.79 -1.92,0.36 -0.63,-0.43 -0.79,-1.29 -0.36,-1.92zm51.43 -20.02c0,13.23 -8.23,23.97 -18.38,23.97 -10.15,0 -18.38,-10.74 -18.38,-23.97 0,-13.24 8.23,-23.97 18.38,-23.97 10.15,0 18.38,10.73 18.38,23.97z"/>
  <path class="fil2 str2" d="M49.51 91.68c0.6,2.1 1.36,7.25 4.15,7.25l14.47 0c1.69,0 2.18,-0.49 2.84,-2.69l13.62 -45.65 4.29 41.45c0.69,6.62 4.69,6.89 7.66,6.89l11.91 0c1.77,0 2.75,-0.86 2.57,-2.57l-8.69 -81.52c-0.18,-1.77 -0.92,-2.62 -2.55,-2.62l-20.43 0c-1.51,0 -1.86,0.62 -2.54,2.62l-15.91 52.4 -15.92 -52.4c-0.68,-2 -1.03,-2.62 -2.54,-2.62l-20.43 0c-1.63,0 -2.36,0.86 -2.54,2.62l-7.83 73.42c-1.05,9.79 2.49,10.67 5.41,10.67l12.86 0c1.63,0 2.36,-0.8 2.55,-2.57l4.92 -46.93 12.13 42.25z"/>
  <path class="fil2 str2" d="M169.73 44.99c-4.84,0 -9.09,3.27 -11.53,8.21 -1.62,3.27 -0.09,7.23 3.26,8.66l4.23 1.81 -3.66 1.76c-1.5,0.72 -2.57,1.94 -3.14,3.34 9.54,-0.82 17.59,2.02 22.17,4.2 1.43,-2.74 2.3,-6.03 2.38,-9.58 -0.05,-2.58 -0.42,-5.07 -1.05,-7.39 -2.06,-6.46 -6.95,-11.01 -12.66,-11.01z"/>
  <g>
   <path class="fil3 str3" d="M183.95 73.42c-5.91,-2.98 -19.35,-8 -34.38,-1.94"/>
  </g>
  <path class="fil2 str2" d="M325.6 95.01c0,1.65 -0.81,2.46 -2.48,2.46l-11.66 0c-1.43,0 -1.78,-0.46 -2.45,-2.46l-2.19 -6.05c-5.04,5.94 -11.76,9.26 -20.05,9.26 -19.98,0 -35.31,-16.06 -35.31,-36.08 0,-7 1.61,-13.25 4.88,-18.7 6.45,-10.74 17.78,-17.26 30.43,-17.26 7.31,0 13.91,2.98 19.03,8.28 1.5,-3.89 1.9,-4.9 6.38,-7.13 -2.28,-1.64 -4.83,-3.28 -7.77,-4.21 -7.86,-2.47 -14.38,4.77 -20.08,0.5 -4.87,-3.65 -3.06,-13.31 17.24,-10.94 15.14,1.77 23.93,10.59 23.78,15.79 0.17,0.35 0.25,0.79 0.25,1.32l0 65.22zm-6.7 -18.56c-0.43,-0.63 -1.29,-0.79 -1.92,-0.36 -0.63,0.43 -0.79,1.29 -0.36,1.92 0.43,0.63 1.29,0.79 1.92,0.36 0.63,-0.43 0.79,-1.29 0.36,-1.92zm-7.69 1.25c-0.44,-0.63 -1.3,-0.79 -1.93,-0.36 -0.63,0.43 -0.79,1.29 -0.36,1.92 0.44,0.63 1.3,0.79 1.93,0.36 0.63,-0.43 0.79,-1.29 0.36,-1.92zm5.35 5.71c-0.43,-0.63 -1.29,-0.79 -1.92,-0.36 -0.63,0.43 -0.79,1.29 -0.36,1.92 0.43,0.63 1.29,0.79 1.92,0.36 0.63,-0.43 0.79,-1.29 0.36,-1.92zm-51.43 -20.02c0,13.24 8.23,23.97 18.38,23.97 10.15,0 18.37,-10.73 18.37,-23.97 0,-13.24 -8.22,-23.97 -18.37,-23.97 -10.15,0 -18.38,10.73 -18.38,23.97z"/>
  <path class="fil2 str2" d="M280.82 44.38c4.84,0 9.09,3.27 11.53,8.21 1.61,3.27 0.09,7.23 -3.26,8.66l-4.23 1.81 3.66 1.76c1.49,0.72 2.57,1.93 3.14,3.34 -9.55,-0.83 -17.59,2.02 -22.17,4.19 -1.44,-2.74 -2.31,-6.02 -2.38,-9.57 0.05,-2.59 0.41,-5.07 1.04,-7.39 2.07,-6.47 6.96,-11.01 12.67,-11.01z"/>
  <g>
   <path class="fil3 str3" d="M266.6 72.8c5.9,-2.97 19.34,-8 34.37,-1.93"/>
  </g>
  <path class="fil2 str2" d="M416.67 94.29c0,1.65 0.84,2.49 2.49,2.49l29.57 0c22.79,0 42.27,-19.41 42.27,-42.31 0,-7.6 -2.01,-14.69 -5.98,-21.23 -7.8,-12.41 -21.4,-21.19 -36.29,-21.19l-29.57 0c-1.65,0 -2.49,0.84 -2.49,2.57l0 79.67zm33.46 -58.31c9.7,0 17.57,7.87 17.57,17.57 0,9.71 -7.87,17.58 -17.57,17.58 -9.71,0 -17.57,-7.87 -17.57,-17.58 0,-9.7 7.86,-17.57 17.57,-17.57z"/>
  <path class="fil2 str2" d="M385.85 94.6c1.01,1.68 2.38,2.51 4.11,2.51l16.68 0c1.85,0 2.8,-0.83 2.8,-2.51l0 -79.65c0,-1.43 -1.56,-2.57 -2.8,-2.57l-15.85 0c-1.67,0 -2.56,1.14 -2.56,2.57l0 46.22 -28.59 -46.22c-1.06,-1.73 -2.43,-2.57 -4.05,-2.57l-18.45 0c-1.62,0 -2.51,1.14 -2.51,2.57l0 79.65c0,1.68 0.84,2.51 2.51,2.51l15.91 0c1.84,0 2.79,-0.83 2.79,-2.51l0 -49.35 30.01 49.35z"/>
  <g id="_2226395766128">
   <path class="fil4" d="M496.04 122.74c0.06,-0.65 0.15,-1.3 0.25,-1.94 0.02,-0.07 0.02,-0.12 0.04,-0.19 0.2,-1.12 0.54,-2.2 1.02,-3.21 0.02,-0.09 0.04,-0.18 0.06,-0.27 0.17,-0.65 0.35,-1.3 0.55,-1.95 -0.17,-0.25 -0.34,-0.5 -0.51,-0.75 -0.65,-1.01 -1.27,-2.04 -1.79,-3.12 -0.34,-0.68 -0.55,-1.29 -0.75,-2.1 -0.1,-0.2 -0.18,-0.38 -0.27,-0.58 -0.14,-0.33 -0.28,-0.65 -0.42,-0.97 -0.18,-0.4 -0.33,-0.8 -0.47,-1.21 -0.1,-0.2 -0.19,-0.39 -0.29,-0.59 -0.5,-1.09 -0.77,-2.13 -0.85,-3.31 -0.19,-0.45 -0.37,-0.91 -0.54,-1.38 -0.41,-1.12 -0.69,-2.28 -0.82,-3.47 -0.19,-1.68 -0.04,-3.36 0.43,-4.98 0.61,-2.09 1.79,-3.91 3.38,-5.37l0.14 -0.14c2.65,-2.73 6.43,-3.59 10,-2.28l0.51 0.19c0.08,0.03 0.15,0.05 0.23,0.08 0.05,0.03 0.11,0.05 0.16,0.07 0.04,0.01 0.08,0.02 0.12,0.03 0.29,0.09 0.59,0.18 0.89,0.26 0.51,0.15 1.01,0.3 1.51,0.46 0.49,0.16 0.97,0.32 1.45,0.49 0.16,0.05 0.3,0.11 0.45,0.16 1.87,-2.3 4.28,-4.09 7.11,-5.26l0.6 -0.27c3.84,-1.71 8.23,-0.66 10.9,2.37l0.06 0.02c1.69,0.68 2.98,1.67 4.07,3.13 0.83,1.12 1.47,2.3 1.86,3.6 0.78,1.73 0.99,3.54 0.64,5.48 -0.38,2.1 -1.08,4.1 -2.32,5.85 -0.43,0.62 -0.89,1.2 -1.35,1.73 -0.09,0.22 -0.2,0.43 -0.32,0.65l-0.28 0.52c-0.12,0.22 -0.25,0.43 -0.38,0.64 -0.4,1.51 -1.15,2.87 -2.18,3.97 -0.14,0.42 -0.31,0.84 -0.53,1.28l-0.21 0.41c-0.04,0.08 -0.08,0.16 -0.12,0.24 -0.05,0.19 -0.11,0.39 -0.16,0.57 -0.16,1.5 -0.69,2.95 -1.59,4.27 -0.15,0.51 -0.32,1.01 -0.5,1.51 -0.18,0.51 -0.4,1.01 -0.64,1.49 -0.07,0.29 -0.16,0.56 -0.25,0.82 -0.13,0.42 -0.3,0.84 -0.49,1.26 -0.34,1.7 -0.91,3.35 -1.64,4.93 -0.08,0.36 -0.17,0.72 -0.28,1.08 -0.11,0.34 -0.22,0.68 -0.34,1.01 -0.08,0.5 -0.2,0.97 -0.38,1.49 -0.34,1.03 -0.79,2.01 -1.37,2.93 -0.22,0.35 -0.44,0.69 -0.67,1.02 -0.06,0.09 -0.12,0.17 -0.18,0.25 -0.84,1.34 -1.87,2.32 -3.26,3.12l-0.73 0.41c-1.35,0.78 -2.67,1.16 -4.23,1.24 -6.51,0.31 -12.1,-2.94 -14.74,-8.95 -0.43,-0.98 -0.66,-1.88 -0.75,-2.95l-0.05 -0.5c-0.07,-0.77 -0.05,-1.44 0.06,-2.2 0.06,-0.37 0.1,-0.73 0.16,-1.09zm-83.11 8.73c0.07,-0.39 0.15,-0.79 0.23,-1.2 0.21,-0.99 0.43,-1.98 0.65,-2.96 0.29,-1.33 0.59,-2.66 0.9,-3.99 0.33,-1.46 0.68,-2.91 1.04,-4.36 0.35,-1.4 0.72,-2.79 1.12,-4.18 0.38,-1.28 0.8,-2.57 1.28,-3.67 0.08,-0.2 0.21,-0.53 0.33,-0.86 0.17,-0.49 0.36,-0.97 0.55,-1.46 0.22,-0.56 0.43,-1.13 0.65,-1.69 0.41,-1.09 0.93,-2.14 1.55,-3.13 0.67,-1.05 1.46,-2.03 2.27,-2.83 0.96,-0.97 2.14,-1.85 3.42,-2.57 2.06,-1.17 4.21,-1.52 6.53,-1.04 0.84,0.17 1.67,0.4 2.47,0.7 0.06,0.02 0.11,0.04 0.17,0.07 0.78,0.31 1.53,0.69 2.24,1.14 1.85,0.35 3.53,1.26 4.93,2.71 0.2,0.2 0.4,0.42 0.59,0.63 0.06,0.06 0.12,0.11 0.18,0.18 0.15,0.15 0.3,0.3 0.46,0.46 0.09,-0.14 0.19,-0.28 0.29,-0.42 0.12,-0.17 0.21,-0.54 0.25,-0.74 0.41,-2.02 1.33,-3.65 2.85,-5.05 1.61,-1.48 3.58,-2.46 5.74,-2.86 1.59,-0.3 3.21,-0.28 4.8,0.02 0.79,0.15 1.57,0.34 2.34,0.57 0.05,0.02 0.11,0.03 0.15,0.05 0.49,0.14 0.96,0.31 1.43,0.51 1.08,0.47 2.03,1.09 2.83,1.86 1.18,0.67 2.22,1.58 3.06,2.64 1.72,1.25 2.92,3 3.47,5.03 0.03,0.05 0.05,0.1 0.08,0.14 1.52,2.47 1.83,5.27 0.9,7.93 0,0.17 -0.01,0.34 -0.02,0.51 -0.02,0.23 -0.04,0.46 -0.07,0.7 0.05,0.21 0.09,0.43 0.13,0.65 0.17,0.91 0.29,1.83 0.33,2.76 0.05,1.02 0.01,2.05 -0.13,3.07 0,0.04 -0.01,0.08 -0.02,0.12 0.42,2.59 0.48,5.23 0.1,7.84 -0.32,2.24 -0.74,4.48 -1.29,6.67 -0.06,0.25 -0.12,0.49 -0.18,0.73 -0.53,2.85 -2.2,5.14 -4.76,6.51 -0.6,0.53 -1.24,1.01 -1.86,1.4 -1.28,0.84 -2.79,1.45 -4.38,1.74 -2.04,0.38 -3.9,0.13 -5.78,-0.76 -3.39,-1.63 -5.72,-4.34 -7.15,-7.59 -1.42,0.61 -2.89,1.07 -4.42,1.35 -1.1,0.21 -2.18,0.31 -3.24,0.3 -0.17,0.6 -0.4,1.18 -0.68,1.75 -0.07,0.67 -0.21,1.34 -0.41,1.98 -0.18,0.64 -0.36,1.28 -0.57,1.9 -0.38,1.16 -0.89,2.26 -1.56,3.28 -0.03,0.05 -0.06,0.09 -0.1,0.14 -0.99,1.44 -2.29,2.64 -3.83,3.48 -1.11,0.61 -2.32,1.03 -3.56,1.26 -0.92,0.17 -1.87,0.24 -2.8,0.27 -2.19,0.09 -4.09,-0.49 -5.86,-1.76 -1.62,-1.17 -2.94,-2.65 -4.04,-4.31 -0.93,-1.4 -1.7,-2.9 -2.32,-4.46 -0.62,-1.57 -1.08,-3.21 -1.36,-4.88 -0.36,-2.08 -0.36,-4.2 0.08,-6.28z"/>
  </g>
  <g id="_2226395765312">
   <path class="fil5" d="M510.91 129.02c-2.74,0.13 -4.63,-0.97 -5.66,-3.33l-0.05 -0.5c0.06,-0.39 0.12,-0.83 0.19,-1.31 0.05,-0.55 0.13,-1.08 0.21,-1.62 0.09,-0.53 0.31,-1.04 0.66,-1.51 0.04,-0.29 0.14,-0.74 0.3,-1.35 0.15,-0.61 0.43,-1.53 0.82,-2.77 0.32,-0.97 0.58,-1.74 0.77,-2.3 0.19,-0.58 0.36,-1.01 0.49,-1.32 -0.41,-0.49 -0.93,-0.94 -1.57,-1.36 -0.66,-0.82 -1.23,-1.61 -1.74,-2.38 -0.5,-0.77 -0.91,-1.47 -1.22,-2.11 -0.16,-0.71 -0.42,-1.44 -0.78,-2.16 -0.16,-0.38 -0.32,-0.75 -0.49,-1.13 -0.16,-0.38 -0.28,-0.78 -0.36,-1.2 -0.16,-0.2 -0.32,-0.45 -0.47,-0.77l-0.02 -0.56c0.12,-0.27 0.09,-0.6 -0.06,-1 -0.16,-0.39 -0.33,-0.8 -0.53,-1.19 -0.17,-0.38 -0.33,-0.78 -0.48,-1.21 -0.16,-0.43 -0.26,-0.86 -0.31,-1.28 -0.05,-0.43 -0.02,-0.87 0.11,-1.3 0.12,-0.42 0.4,-0.82 0.84,-1.18l0.39 -0.41 0.51 0.19c0.38,0.15 0.73,0.27 1.06,0.37 0.33,0.09 0.66,0.19 0.99,0.28 0.4,0.12 0.8,0.23 1.2,0.37 0.4,0.12 0.83,0.28 1.31,0.44l0.52 0.23 0.04 0.51c0.01,0.06 0.04,0.14 0.09,0.22 0.05,0.08 0.1,0.15 0.17,0.2l0.53 0.04 0.17 0.63 0.1 0.55c0.05,0.27 0.1,0.46 0.15,0.56 0.05,0.1 0.13,0.2 0.25,0.31l0.33 0.55c0.1,0.55 0.24,1.02 0.41,1.43 0.17,0.41 0.35,0.81 0.56,1.22 0.22,0.39 0.43,0.8 0.6,1.23 0.17,0.42 0.27,0.89 0.31,1.42 0.17,-0.12 0.32,-0.29 0.47,-0.51 0.06,-0.07 0.11,-0.15 0.17,-0.22 0.07,-0.08 0.14,-0.16 0.22,-0.23l2.39 -4.92 -0.2 -0.52 0.93 -1.31c0.26,-0.3 0.5,-0.6 0.73,-0.92 0.23,-0.3 0.4,-0.64 0.51,-1.01l0.21 -0.46c1.02,-2.07 2.57,-3.52 4.65,-4.34l0.74 -0.33 0.36 0.68c0.23,0.4 0.6,0.72 1.1,0.96 0.49,0.23 1.03,0.46 1.6,0.66l0.57 0.23c0.24,0.33 0.39,0.58 0.42,0.76 0.04,0.19 0.05,0.34 0.04,0.47l0.33 0.55c-0.17,0.94 -0.41,1.63 -0.73,2.09 -0.33,0.45 -0.67,0.89 -1.04,1.3 -0.28,0.33 -0.53,0.66 -0.76,0.98 -0.22,0.33 -0.37,0.68 -0.46,1.04l-0.28 0.52c-0.68,0.53 -1.07,1.2 -1.13,2l-0.07 0.67 -0.69 0.13c-0.03,0 -0.08,0.09 -0.18,0.24 -0.1,0.17 -0.22,0.53 -0.37,1.08 -0.2,0.42 -0.35,0.69 -0.43,0.81 -0.09,0.13 -0.16,0.23 -0.21,0.3 -0.03,0.17 -0.06,0.31 -0.08,0.44 -0.02,0.13 -0.05,0.29 -0.08,0.49l-0.2 0.41c-0.23,0.3 -0.38,0.57 -0.46,0.81 -0.08,0.26 -0.17,0.55 -0.27,0.88 -0.06,0.29 -0.15,0.6 -0.25,0.92 -0.1,0.31 -0.25,0.63 -0.48,0.96l0.18 0.48 -0.3 0.39c-0.2,0.25 -0.36,0.56 -0.49,0.92 -0.12,0.35 -0.25,0.71 -0.36,1.08 -0.11,0.39 -0.25,0.79 -0.39,1.19 -0.15,0.41 -0.36,0.79 -0.64,1.16 -0.11,0.58 -0.21,1.04 -0.33,1.38 -0.11,0.33 -0.32,0.75 -0.63,1.25 -0.1,1.52 -0.68,3.25 -1.73,5.17 0.03,0.34 -0.01,0.68 -0.11,1.03 -0.11,0.35 -0.23,0.68 -0.36,0.99 -0.04,0.13 -0.08,0.27 -0.13,0.42 -0.06,0.15 -0.09,0.26 -0.11,0.32l-0.04 0.53c-0.12,0.37 -0.26,0.68 -0.42,0.93 -0.16,0.25 -0.31,0.48 -0.46,0.7 -0.08,0.07 -0.15,0.16 -0.21,0.27 -0.06,0.11 -0.11,0.19 -0.16,0.26l-0.72 0.42z"/>
   <path class="fil5" d="M464.9 109.46c-0.08,-0.24 -0.17,-0.44 -0.29,-0.63 -0.1,-0.18 -0.23,-0.38 -0.37,-0.62 -0.21,-0.33 -0.42,-0.7 -0.63,-1.1 -0.19,-0.41 -0.35,-0.89 -0.45,-1.47 0,-0.31 0.04,-0.55 0.1,-0.7 0.06,-0.15 0.14,-0.29 0.21,-0.39l0.03 -0.86 0.68 -0.13c0.25,-0.01 0.5,-0.04 0.76,-0.09 0.26,-0.05 0.51,-0.09 0.75,-0.14 1.16,-0.21 2.33,-0.48 3.53,-0.79 1.19,-0.32 2.42,-0.66 3.67,-1.01 1.36,-0.45 2.84,-0.86 4.43,-1.25 0.09,-0.36 0.15,-0.6 0.18,-0.69 0.03,-0.11 0.06,-0.22 0.1,-0.35l0.45 -0.37c0.69,-0.16 1.19,-0.17 1.5,-0.02 0.31,0.15 0.56,0.3 0.74,0.45 0.78,-0.21 1.57,-0.43 2.37,-0.7 0.8,-0.26 1.63,-0.52 2.49,-0.81 1.18,-0.38 2.38,-0.76 3.6,-1.15 1.22,-0.37 2.41,-0.68 3.59,-0.9 0.52,-0.09 1.01,-0.17 1.47,-0.22 0.46,-0.05 0.91,-0.09 1.35,-0.11l0.62 0.31c0.16,0.19 0.35,0.36 0.57,0.5 0.21,0.15 0.45,0.29 0.74,0.43 0.52,0.29 1.05,0.65 1.59,1.11 0.54,0.47 0.85,1.24 0.93,2.33l-0.14 0.5c-0.11,0.14 -0.23,0.29 -0.4,0.44l-0.34 0.69 -0.5 0.09c-0.3,0.06 -0.52,0.12 -0.67,0.19 -0.14,0.07 -0.31,0.18 -0.51,0.31 -0.11,0.09 -0.23,0.16 -0.38,0.23 -0.14,0.08 -0.3,0.16 -0.47,0.26 -0.34,0.03 -0.6,0.06 -0.78,0.1 -0.18,0.03 -0.4,0.07 -0.64,0.11 -0.91,0.17 -1.88,0.42 -2.93,0.73 -1.03,0.32 -2.04,0.66 -3.01,0.99 -0.71,0.23 -1.4,0.44 -2.05,0.64 -0.66,0.2 -1.25,0.38 -1.78,0.54 -0.16,0.85 -0.3,1.6 -0.44,2.25 -0.13,0.65 -0.27,1.31 -0.43,1.97 -0.16,0.65 -0.3,1.31 -0.43,1.98 -0.13,0.67 -0.22,1.4 -0.3,2.2 -0.26,0.61 -0.47,1.19 -0.62,1.74 -0.15,0.54 -0.23,1.15 -0.27,1.81 -0.36,0.61 -0.59,1.23 -0.67,1.87 -0.08,0.64 -0.16,1.2 -0.23,1.64l-0.06 0.72c-0.17,0.26 -0.27,0.44 -0.29,0.58 -0.02,0.12 -0.08,0.28 -0.18,0.46 -0.02,0.4 -0.06,0.8 -0.15,1.2 -0.03,0.16 -0.06,0.33 -0.09,0.51 -0.03,0.18 -0.02,0.31 0.02,0.39 0,0.35 -0.04,0.62 -0.12,0.83 0.03,0.18 0.05,0.37 0.05,0.55 0.01,0.19 0.01,0.38 0.01,0.57 -0.02,0.22 -0.03,0.42 -0.02,0.59 -0.01,0.17 0.04,0.33 0.13,0.47 0.11,0.11 0.22,0.21 0.34,0.31 0.11,0.11 0.21,0.24 0.31,0.42 0.07,0.05 0.16,0.07 0.25,0.09 0.1,0.01 0.18,0.04 0.26,0.09 0.28,0.17 0.53,0.25 0.74,0.24l0.56 0.46c0.38,1.07 0.38,1.94 -0.02,2.64 -0.42,0.81 -1.27,1.32 -2.54,1.56l-0.65 0.07c-0.25,-0.17 -0.4,-0.29 -0.44,-0.34 -0.29,-0.07 -0.54,-0.13 -0.74,-0.17 -0.19,-0.04 -0.39,-0.15 -0.57,-0.33 -0.08,-0.05 -0.16,-0.08 -0.25,-0.08 -0.1,0 -0.18,-0.02 -0.26,-0.07 -0.31,-0.03 -0.58,-0.1 -0.78,-0.19l-0.55 -0.18c-0.03,-0.3 -0.05,-0.52 -0.07,-0.64 -0.31,-0.29 -0.57,-0.62 -0.77,-0.98 -0.22,-0.37 -0.41,-0.76 -0.58,-1.17 -0.15,-0.32 -0.29,-0.61 -0.42,-0.87 -0.12,-0.26 -0.28,-0.47 -0.48,-0.66 -0.45,-2.11 -0.58,-3.94 -0.39,-5.46 0.18,-1.53 0.42,-3.02 0.71,-4.49 0.17,-0.78 0.32,-1.58 0.45,-2.39 0.13,-0.81 0.24,-1.62 0.3,-2.46l0.41 -0.59c0.18,-0.22 0.3,-0.36 0.35,-0.39 -0.08,-0.4 -0.07,-0.8 0.01,-1.21 0.08,-0.41 0.18,-0.83 0.29,-1.25 0.07,-0.27 0.14,-0.53 0.2,-0.79 0.07,-0.26 0.09,-0.49 0.09,-0.68 -0.21,0.04 -0.4,0.08 -0.57,0.13 -0.16,0.05 -0.33,0.1 -0.5,0.17 -0.38,0.16 -0.76,0.27 -1.12,0.34 -0.27,0.05 -0.47,0.07 -0.6,0.07 -0.22,0.16 -0.43,0.28 -0.65,0.33 -0.2,0.06 -0.41,0.1 -0.63,0.14l-0.54 0.11 -0.55 0.1c-0.36,0.06 -0.64,0.16 -0.84,0.29 -0.42,0.08 -0.7,0.13 -0.82,0.15 -0.12,0.02 -0.25,0.05 -0.41,0.08l-0.54 0.1 -0.55 0.1c-0.24,0.05 -0.52,0.07 -0.83,0.08 -0.31,0.02 -0.65,-0.04 -1.02,-0.15l-0.39 -0.31c-0.24,-0.3 -0.44,-0.45 -0.6,-0.46l-0.53 -0.04 -0.09 -0.5z"/>
   <path class="fil5" d="M427.5 143.63c-0.3,0.06 -0.78,0.1 -1.43,0.12 -0.59,-0.42 -1.15,-1.05 -1.69,-1.87 -0.55,-0.82 -1.01,-1.73 -1.41,-2.71 -0.38,-0.98 -0.66,-1.98 -0.83,-3 -0.18,-1.02 -0.17,-1.95 0.02,-2.8 -0.01,-0.03 0.07,-0.42 0.22,-1.17 0.16,-0.76 0.37,-1.71 0.63,-2.88 0.25,-1.15 0.55,-2.45 0.88,-3.88 0.33,-1.43 0.66,-2.83 1,-4.21 0.34,-1.39 0.68,-2.65 1.02,-3.79 0.33,-1.15 0.65,-2.05 0.93,-2.69 0.19,-0.48 0.37,-0.94 0.53,-1.38 0.15,-0.43 0.31,-0.83 0.45,-1.21 0.24,-0.61 0.45,-1.17 0.65,-1.69 0.2,-0.53 0.44,-1.02 0.72,-1.46 0.28,-0.44 0.61,-0.85 0.98,-1.21 0.36,-0.38 0.84,-0.72 1.41,-1.04 0.39,0.08 0.74,0.18 1.04,0.29 0.3,0.12 0.58,0.28 0.84,0.48l0.25 0.61c0.11,0.21 0.23,0.33 0.38,0.38 0.15,0.05 0.27,0.07 0.36,0.05 0.42,0.03 0.78,0.06 1.08,0.11 0.31,0.06 0.63,0.06 0.97,0.03 0.16,0.16 0.31,0.32 0.45,0.49 0.14,0.15 0.28,0.31 0.43,0.43 0.77,0.77 1.44,1.53 1.98,2.27 0.54,0.75 0.71,1.64 0.49,2.69l0.14 0.49c0.2,0.18 0.31,0.36 0.35,0.55 0.03,0.18 0.05,0.44 0.05,0.79 0.01,0.24 0.04,0.52 0.08,0.81 0.03,0.29 0.13,0.59 0.29,0.91l0.38 0.31c0.53,0.15 1.02,0.18 1.48,0.09 0.6,-0.11 1.13,-0.34 1.56,-0.71 0.44,-0.36 0.84,-0.72 1.21,-1.07 0.29,-0.31 0.57,-0.56 0.83,-0.77 0.26,-0.2 0.52,-0.36 0.78,-0.47 0.53,-0.73 1.01,-1.37 1.45,-1.94 0.45,-0.57 0.91,-1.15 1.4,-1.74 0.93,-1.09 1.81,-2.24 2.65,-3.44 0.85,-1.21 1.43,-2.63 1.76,-4.26 0.3,-0.27 0.65,-0.45 1.08,-0.53 0.42,-0.08 0.86,-0.07 1.31,0.01 0.46,0.09 0.93,0.2 1.39,0.34 0.1,0.04 0.19,0.07 0.27,0.09 0.08,0.01 0.18,0.04 0.28,0.09 0.06,0.33 0.25,0.61 0.57,0.83 0.18,0.1 0.3,0.15 0.37,0.17 0.06,0.02 0.13,0.04 0.2,0.06 0.27,0.1 0.49,0.2 0.69,0.29 0.18,0.09 0.35,0.24 0.48,0.43 0.42,0.77 0.99,1.32 1.71,1.66 0.01,0.34 0.09,0.66 0.23,0.97 0.15,0.3 0.32,0.59 0.49,0.87 0.09,0.11 0.16,0.22 0.21,0.32 0.05,0.1 0.12,0.21 0.21,0.36l-1.02 0.09 0.32 0.98c0.19,0.5 0.26,1.08 0.21,1.75 -0.05,0.67 -0.15,1.2 -0.29,1.61 0.23,0.9 0.39,1.61 0.49,2.15 0.1,0.53 0.16,1.02 0.18,1.49 0.03,0.47 0.01,0.92 -0.05,1.35 -0.06,0.44 -0.16,0.9 -0.28,1.4 0.54,2.28 0.67,4.44 0.37,6.47 -0.29,2.03 -0.66,3.96 -1.11,5.77 -0.05,0.23 -0.11,0.44 -0.16,0.64 -0.06,0.19 -0.11,0.4 -0.13,0.59 -0.32,0.15 -0.6,0.32 -0.85,0.48 -0.25,0.18 -0.48,0.37 -0.7,0.56 -0.29,0.27 -0.59,0.51 -0.9,0.7 -0.31,0.21 -0.65,0.34 -1.01,0.41 -1.66,-0.79 -2.75,-2.49 -3.28,-5.09 -0.53,-2.6 -0.6,-6.03 -0.19,-10.28 0.18,-0.19 0.23,-0.43 0.15,-0.73l-0.1 -0.5 -0.46 0.03c-0.15,0.03 -0.29,0.07 -0.4,0.13 -0.12,0.05 -0.18,0.21 -0.2,0.46 -0.84,0.88 -1.76,1.8 -2.76,2.75 -1,0.95 -2.05,1.86 -3.15,2.7 -1.09,0.85 -2.24,1.59 -3.42,2.24 -1.19,0.64 -2.37,1.07 -3.55,1.29 -3.04,0.57 -5.62,-0.55 -7.74,-3.36l-0.56 -0.74 -0.32 0.81c-0.06,0.16 -0.16,0.5 -0.31,0.97 -0.15,0.49 -0.28,1.04 -0.4,1.66 -0.12,0.62 -0.2,1.25 -0.26,1.88 -0.05,0.64 -0.01,1.18 0.14,1.62 -0.31,0.41 -0.59,0.85 -0.86,1.35 -0.27,0.48 -0.43,1.02 -0.49,1.59 -0.03,0.17 -0.01,0.31 0.04,0.44 0.05,0.13 0.13,0.27 0.22,0.4 0.01,0.23 -0.03,0.39 -0.1,0.5 -0.07,0.11 -0.17,0.21 -0.26,0.33 -0.13,0.18 -0.26,0.36 -0.37,0.56 -0.13,0.19 -0.22,0.41 -0.31,0.65 -0.03,0.19 -0.03,0.39 -0.03,0.59 0.01,0.21 0.01,0.38 0.01,0.54 0.06,0.33 0.06,0.57 -0.01,0.71 -0.19,0.69 -0.36,1.27 -0.5,1.72 -0.15,0.44 -0.32,0.8 -0.49,1.05 -0.17,0.25 -0.37,0.44 -0.58,0.55 -0.21,0.12 -0.48,0.21 -0.78,0.27z"/>
  </g>
  <path class="fil0 str0" d="M63.97 82.21l-0.05 0.06 8.04 0.71c2.57,0.23 5.69,0.5 9.29,0.83 4.72,0.35 9.17,0.75 13.3,1.2 11.73,1.27 19.87,2.98 27.1,4.5 6.59,1.38 12.85,2.7 20.22,3.37 21.45,1.96 38.1,1.89 52.65,1.83 6.66,-0.03 13.23,-0.06 19.85,0.11 2.79,0.05 5.34,0.1 7.82,0.17 15.89,0.21 33.93,2.75 52.45,5.36 7.69,1.08 15.53,2.19 22.78,3.05 6.38,0.76 11.06,1 15.87,1.25 1.91,0.1 3.87,0.19 5.92,0.33 4.26,0.31 6.87,0.54 6.9,0.54l-0.14 -0.05c-0.03,0 -2.65,-0.23 -6.92,-0.54 -2.07,-0.14 -4.03,-0.24 -5.94,-0.34 -4.79,-0.24 -9.44,-0.48 -15.75,-1.23 -7.21,-0.86 -15.03,-1.97 -22.7,-3.05 -18.59,-2.62 -36.7,-5.17 -52.72,-5.39 -2.47,-0.06 -5.03,-0.11 -7.81,-0.16 -6.64,-0.18 -13.23,-0.15 -19.9,-0.12 -14.5,0.06 -31.09,0.13 -52.35,-1.82 -7.14,-0.65 -13.32,-1.95 -19.83,-3.32 -7.28,-1.53 -15.47,-3.25 -27.38,-4.54 -4.18,-0.45 -8.69,-0.86 -13.43,-1.21 -3.56,-0.32 -6.67,-0.6 -9.24,-0.83l-8.03 -0.71z"/>
  <path class="fil0 str0" d="M66.4 79.41l-0.04 0.04 27.85 2.59c1.71,0.16 3.59,0.32 5.57,0.48 4.91,0.41 9.91,0.82 11.61,1.22 39.01,7.05 73.46,8.18 101.51,9.1l1.75 0.06c2.77,0.15 5.28,0.3 7.7,0.45 17.29,0.95 37.12,3.71 57.09,6.61 10.15,1.45 16.34,1.66 22.62,1.87 4.2,0.14 8.41,0.28 13.89,0.82 2.06,0.19 3.21,0.3 3.22,0.3l-0.12 -0.05c-0.01,0 -1.16,-0.1 -3.22,-0.29 -5.52,-0.55 -9.75,-0.7 -13.97,-0.84 -6.24,-0.21 -12.38,-0.41 -22.39,-1.84 -20.03,-2.91 -39.9,-5.68 -57.29,-6.64 -2.41,-0.15 -4.94,-0.3 -7.73,-0.45l-1.78 -0.05c-27.94,-0.93 -62.23,-2.06 -100.91,-9.05 -1.83,-0.43 -6.96,-0.85 -12.02,-1.27 -1.97,-0.17 -3.84,-0.32 -5.51,-0.48l-27.83 -2.58z"/>
  <path class="fil0 str0" d="M68.61 76.87l-0.04 0.04 26.48 2.57c3.97,0.38 8.27,0.8 12.86,1.24 43.49,5.21 76.42,8.35 106.33,10.3 2.97,0.27 6.03,0.55 9.05,0.83 15.85,1.52 31.43,3.18 47.72,5.09 6.52,0.74 11.66,1.08 16.95,1.42 2.23,0.15 4.52,0.3 6.88,0.48 3.1,0.3 5.54,0.54 8.41,0.79l9.42 0.91 -0.11 -0.04 -9.43 -0.92c-2.87,-0.25 -5.3,-0.48 -8.42,-0.79 -2.39,-0.18 -4.68,-0.33 -6.92,-0.48 -5.26,-0.34 -10.37,-0.68 -16.84,-1.41 -16.29,-1.91 -31.88,-3.58 -47.74,-5.1 -3.03,-0.28 -6.09,-0.56 -9.1,-0.83 -29.87,-1.96 -62.71,-5.09 -106.14,-10.29 -4.64,-0.45 -8.94,-0.87 -12.9,-1.25l-26.46 -2.56z"/>
  <path class="fil0 str0" d="M70.61 74.56l-0.04 0.04 55.56 5.58c2.17,0.21 4.38,0.44 6.61,0.66 21.04,2.24 39.95,4.09 58.73,5.92 3.02,0.3 6.02,0.59 9.02,0.88 2.71,0.28 5.39,0.55 8.06,0.81 5.26,0.53 10.42,1.05 15.51,1.56 2.51,0.25 5,0.5 7.47,0.74 15.82,1.64 30.02,3.06 43.49,4.36l31.55 3.17 -0.11 -0.04 -31.54 -3.17c-13.46,-1.3 -27.65,-2.72 -43.46,-4.36 -2.48,-0.25 -4.96,-0.5 -7.47,-0.75 -5.09,-0.5 -10.25,-1.02 -15.51,-1.55 -2.66,-0.27 -5.34,-0.54 -8.06,-0.81 -3,-0.29 -6,-0.59 -9.01,-0.88 -18.76,-1.83 -37.66,-3.68 -58.67,-5.92 -2.24,-0.23 -4.45,-0.45 -6.62,-0.67l-55.51 -5.57z"/>
  <path class="fil1 str1" d="M324.9 10.48c1.78,-5.04 6.49,-8.58 12.24,-8.58l18.45 0c5.49,0 10.11,2.92 12.97,7.54l9.19 14.86 0 -9.35c0,-7.32 5.69,-13.05 13.04,-13.05l15.85 0c2.07,0 4.06,0.5 5.84,1.39 1.92,-1.1 4.19,-1.72 6.68,-1.72l29.57 0c18.51,0 35.53,10.6 45.19,26.15 5.05,8.14 7.56,17.18 7.56,26.75 0,28.63 -24.12,52.79 -52.75,52.79l-29.57 0c-2.14,0 -4.12,-0.46 -5.86,-1.29 -1.94,1.05 -4.2,1.62 -6.66,1.62l-16.68 0c-5.52,0 -10.21,-2.86 -13.06,-7.54l-10.58 -17.4 0 11.95c0,7.6 -5.77,12.99 -13.27,12.99l-15.91 0c-2.5,0 -4.78,-0.62 -6.71,-1.72 -2.05,1.33 -4.55,2.08 -7.31,2.08l-11.66 0c-3.45,0 -6.2,-1.07 -8.3,-2.98 -4.96,2.46 -10.48,3.73 -16.39,3.73 -17.81,0 -32.78,-9.88 -40.39,-24.4l0 9.77c0,7.46 -5.52,13 -12.99,13 -6.99,0 -14.84,-0.4 -21.48,-2.61 -7.16,-2.37 -11.46,-6.61 -12.98,-11.65 -8.3,10.09 -20.8,16.5 -35.15,16.5 -5.79,0 -11.19,-1.21 -16.06,-3.56 -2.36,1.8 -5.32,2.81 -8.64,2.81l-11.66 0c-3.59,0 -6.72,-1.27 -9.01,-3.42 -2.37,2.65 -5.9,4.27 -9.96,4.27l-11.91 0c-7.49,0 -13.08,-3.1 -15.99,-8.81 -2.06,5.48 -6.17,8.81 -12.42,8.81l-14.47 0c-5.42,0 -9.5,-3.2 -11.85,-7.72 -1.97,4.68 -6.32,7.72 -11.9,7.72l-12.86 0c-4.94,0 -9.38,-1.73 -12.48,-5.72 -3.65,-4.71 -3.96,-10.85 -3.36,-16.54l7.84 -73.42c0.74,-6.97 5.82,-11.99 12.96,-11.99l20.43 0c6.53,0 10.47,3.85 12.47,9.73 0.04,0.12 0.07,0.21 0.1,0.33l5.89 19.38 5.88 -19.38c0.03,-0.12 0.06,-0.21 0.1,-0.33 2,-5.88 5.94,-9.73 12.47,-9.73l20.43 0c7.14,0 12.22,5.02 12.97,11.99l1.73 16.23c0.02,-0.88 0.13,-1.76 0.31,-2.63 0.67,-6.43 5.22,-11.99 10.25,-15.79 6.52,-4.93 14.65,-7.71 22.72,-8.65 9.02,-1.06 20.34,-0.67 26.97,6.51 0.6,0.65 1.14,1.33 1.61,2.03 0.09,-0.72 0.24,-1.45 0.47,-2.17 1.61,-5.09 6.27,-8.29 11.55,-8.29l19.63 0c5.88,0 10.09,3.16 12.72,8.26 0.06,0.12 0.11,0.22 0.17,0.34l3.94 8.4 3.88 -8.35c0.07,-0.14 0.12,-0.26 0.19,-0.39 2.63,-5.1 6.86,-8.26 12.74,-8.26l19.86 0c6.29,0 11.63,4.22 12.36,10.41 0.55,-0.91 1.21,-1.78 1.97,-2.6 6.63,-7.17 17.94,-7.56 26.96,-6.51 7.83,0.92 15.7,3.56 22.12,8.21z"/>
  <path class="fil6 str2" d="M224.6 82.25c-4.13,-3.28 -7.8,-6.24 -11.84,-1.75 -14.38,15.92 14.02,16.09 20.63,16.09 1.67,0 2.51,-0.84 2.51,-2.52l0 -32.29 27.21 -47.75c0.23,-0.48 0.35,-0.9 0.35,-1.2 0,-0.9 -0.77,-1.38 -1.97,-1.38l-19.86 0c-1.63,0 -2.47,0.73 -3.42,2.58l-13.33 28.7 -13.49 -28.7c-0.95,-1.85 -1.77,-2.58 -3.4,-2.58l-19.63 0c-1.51,0 -2.37,1.22 -0.8,4.01l26.22 46.45 10.82 20.34z"/>
  <path class="fil6 str2" d="M124.95 95.63c0,1.65 0.81,2.46 2.47,2.46l11.66 0c4.84,0 3.78,-6.12 4.64,-8.51 5.04,5.94 11.77,9.26 20.06,9.26 19.98,0 35.31,-16.06 35.31,-36.08 0,-7.01 -1.62,-13.26 -4.88,-18.7 -6.45,-10.74 -17.78,-17.27 -30.43,-17.27 -7.32,0 -13.92,2.99 -19.03,8.29 -0.26,-3.54 -1.86,-4.95 -6.39,-7.14 2.29,-1.63 4.84,-3.27 7.78,-4.2 7.85,-2.48 14.37,4.77 20.08,0.5 4.87,-3.65 3.05,-13.32 -17.24,-10.95 -15.15,1.77 -23.93,10.59 -23.79,15.79 -0.16,0.36 -0.24,0.79 -0.24,1.32l0 65.23zm6.7 -18.57c0.43,-0.63 1.29,-0.79 1.92,-0.36 0.63,0.44 0.79,1.3 0.36,1.93 -0.43,0.63 -1.29,0.79 -1.92,0.36 -0.63,-0.44 -0.79,-1.3 -0.36,-1.93zm7.69 1.25c0.43,-0.63 1.29,-0.79 1.92,-0.36 0.63,0.43 0.79,1.29 0.36,1.93 -0.43,0.63 -1.29,0.79 -1.92,0.35 -0.63,-0.43 -0.79,-1.29 -0.36,-1.92zm-5.35 5.72c0.43,-0.63 1.29,-0.8 1.92,-0.36 0.63,0.43 0.79,1.29 0.36,1.92 -0.43,0.63 -1.29,0.79 -1.92,0.36 -0.63,-0.43 -0.79,-1.29 -0.36,-1.92zm51.43 -20.02c0,13.23 -8.23,23.97 -18.38,23.97 -10.15,0 -18.38,-10.74 -18.38,-23.97 0,-13.24 8.23,-23.97 18.38,-23.97 10.15,0 18.38,10.73 18.38,23.97z"/>
  <path class="fil6 str2" d="M49.51 91.68c0.6,2.1 1.36,7.25 4.15,7.25l14.47 0c1.69,0 2.18,-0.49 2.84,-2.69l13.62 -45.65 4.29 41.45c0.69,6.62 4.69,6.89 7.66,6.89l11.91 0c1.77,0 2.75,-0.86 2.57,-2.57l-8.69 -81.52c-0.18,-1.77 -0.92,-2.62 -2.55,-2.62l-20.43 0c-1.51,0 -1.86,0.62 -2.54,2.62l-15.91 52.4 -15.92 -52.4c-0.68,-2 -1.03,-2.62 -2.54,-2.62l-20.43 0c-1.63,0 -2.36,0.86 -2.54,2.62l-7.83 73.42c-1.05,9.79 2.49,10.67 5.41,10.67l12.86 0c1.63,0 2.36,-0.8 2.55,-2.57l4.92 -46.93 12.13 42.25z"/>
  <path class="fil6 str2" d="M169.73 44.99c-4.84,0 -9.09,3.27 -11.53,8.21 -1.62,3.27 -0.09,7.23 3.26,8.66l4.23 1.81 -3.66 1.76c-1.5,0.72 -2.57,1.94 -3.14,3.34 9.54,-0.82 17.59,2.02 22.17,4.2 1.43,-2.74 2.3,-6.03 2.38,-9.58 -0.05,-2.58 -0.42,-5.07 -1.05,-7.39 -2.06,-6.46 -6.95,-11.01 -12.66,-11.01z"/>
  <g>
   <path class="fil3 str3" d="M183.95 73.42c-5.91,-2.98 -19.35,-8 -34.38,-1.94"/>
  </g>
  <path class="fil6 str2" d="M325.6 95.01c0,1.65 -0.81,2.46 -2.48,2.46l-11.66 0c-1.43,0 -1.78,-0.46 -2.45,-2.46l-2.19 -6.05c-5.04,5.94 -11.76,9.26 -20.05,9.26 -19.98,0 -35.31,-16.06 -35.31,-36.08 0,-7 1.61,-13.25 4.88,-18.7 6.45,-10.74 17.78,-17.26 30.43,-17.26 7.31,0 13.91,2.98 19.03,8.28 1.5,-3.89 1.9,-4.9 6.38,-7.13 -2.28,-1.64 -4.83,-3.28 -7.77,-4.21 -7.86,-2.47 -14.38,4.77 -20.08,0.5 -4.87,-3.65 -3.06,-13.31 17.24,-10.94 15.14,1.77 23.93,10.59 23.78,15.79 0.17,0.35 0.25,0.79 0.25,1.32l0 65.22zm-6.7 -18.56c-0.43,-0.63 -1.29,-0.79 -1.92,-0.36 -0.63,0.43 -0.79,1.29 -0.36,1.92 0.43,0.63 1.29,0.79 1.92,0.36 0.63,-0.43 0.79,-1.29 0.36,-1.92zm-7.69 1.25c-0.44,-0.63 -1.3,-0.79 -1.93,-0.36 -0.63,0.43 -0.79,1.29 -0.36,1.92 0.44,0.63 1.3,0.79 1.93,0.36 0.63,-0.43 0.79,-1.29 0.36,-1.92zm5.35 5.71c-0.43,-0.63 -1.29,-0.79 -1.92,-0.36 -0.63,0.43 -0.79,1.29 -0.36,1.92 0.43,0.63 1.29,0.79 1.92,0.36 0.63,-0.43 0.79,-1.29 0.36,-1.92zm-51.43 -20.02c0,13.24 8.23,23.97 18.38,23.97 10.15,0 18.37,-10.73 18.37,-23.97 0,-13.24 -8.22,-23.97 -18.37,-23.97 -10.15,0 -18.38,10.73 -18.38,23.97z"/>
  <path class="fil6 str2" d="M280.82 44.38c4.84,0 9.09,3.27 11.53,8.21 1.61,3.27 0.09,7.23 -3.26,8.66l-4.23 1.81 3.66 1.76c1.49,0.72 2.57,1.93 3.14,3.34 -9.55,-0.83 -17.59,2.02 -22.17,4.19 -1.44,-2.74 -2.31,-6.02 -2.38,-9.57 0.05,-2.59 0.41,-5.07 1.04,-7.39 2.07,-6.47 6.96,-11.01 12.67,-11.01z"/>
  <g>
   <path class="fil3 str3" d="M266.6 72.8c5.9,-2.97 19.34,-8 34.37,-1.93"/>
  </g>
  <path class="fil6 str2" d="M416.67 94.29c0,1.65 0.84,2.49 2.49,2.49l29.57 0c22.79,0 42.27,-19.41 42.27,-42.31 0,-7.6 -2.01,-14.69 -5.98,-21.23 -7.8,-12.41 -21.4,-21.19 -36.29,-21.19l-29.57 0c-1.65,0 -2.49,0.84 -2.49,2.57l0 79.67zm33.46 -58.31c9.7,0 17.57,7.87 17.57,17.57 0,9.71 -7.87,17.58 -17.57,17.58 -9.71,0 -17.57,-7.87 -17.57,-17.58 0,-9.7 7.86,-17.57 17.57,-17.57z"/>
  <path class="fil6 str2" d="M385.85 94.6c1.01,1.68 2.38,2.51 4.11,2.51l16.68 0c1.85,0 2.8,-0.83 2.8,-2.51l0 -79.65c0,-1.43 -1.56,-2.57 -2.8,-2.57l-15.85 0c-1.67,0 -2.56,1.14 -2.56,2.57l0 46.22 -28.59 -46.22c-1.06,-1.73 -2.43,-2.57 -4.05,-2.57l-18.45 0c-1.62,0 -2.51,1.14 -2.51,2.57l0 79.65c0,1.68 0.84,2.51 2.51,2.51l15.91 0c1.84,0 2.79,-0.83 2.79,-2.51l0 -49.35 30.01 49.35z"/>
  <path class="fil1" d="M469.23 132.21c-0.17,0.82 -0.36,1.64 -0.56,2.46 -0.06,0.25 -0.12,0.5 -0.19,0.75 0,0.02 -0.01,0.03 -0.01,0.05 -0.35,2.03 -1.55,3.64 -3.41,4.55 -0.05,0.03 -0.1,0.05 -0.09,0.05 -0.56,0.51 -1.15,0.98 -1.75,1.36 -0.95,0.62 -2.07,1.07 -3.25,1.29 -1.37,0.25 -2.61,0.09 -3.86,-0.51 -3.78,-1.8 -5.82,-5.31 -6.68,-9.26 -0.46,0.29 -0.93,0.56 -1.41,0.82 -1.7,0.92 -3.51,1.6 -5.41,1.95 -1.84,0.35 -3.61,0.33 -5.27,-0.01 -0.04,0.07 -0.09,0.15 -0.14,0.22 0.05,1.41 -0.27,2.8 -1.02,4.01 -0.01,0.68 -0.12,1.35 -0.34,2 -0.16,0.61 -0.33,1.21 -0.53,1.8 -0.3,0.91 -0.7,1.79 -1.24,2.58 -0.73,1.09 -1.7,1.99 -2.78,2.56 -0.76,0.43 -1.69,0.75 -2.64,0.93 -0.77,0.14 -1.56,0.19 -2.34,0.22 -1.46,0.06 -2.74,-0.33 -3.92,-1.18 -1.31,-0.94 -2.36,-2.16 -3.25,-3.49 -0.81,-1.22 -1.48,-2.52 -2.01,-3.88 -0.55,-1.37 -0.94,-2.8 -1.19,-4.25 -0.29,-1.69 -0.3,-3.41 0.05,-5.08 0.07,-0.41 0.15,-0.82 0.24,-1.24 0.21,-0.98 0.42,-1.96 0.64,-2.93 0.29,-1.32 0.59,-2.64 0.89,-3.95 0.33,-1.44 0.68,-2.88 1.03,-4.32 0.34,-1.35 0.7,-2.71 1.09,-4.05 0.34,-1.15 0.72,-2.32 1.16,-3.34 0.12,-0.29 0.26,-0.66 0.39,-1.03 0.17,-0.47 0.35,-0.92 0.53,-1.39 0.21,-0.56 0.43,-1.12 0.64,-1.68 0.34,-0.89 0.76,-1.76 1.28,-2.57 0.53,-0.85 1.17,-1.64 1.84,-2.3 0.77,-0.79 1.73,-1.48 2.75,-2.06 1.37,-0.78 2.81,-1.01 4.36,-0.7 0.67,0.14 1.34,0.33 1.99,0.57 0.04,0.02 0.07,0.03 0.11,0.04 0.8,0.32 1.55,0.74 2.24,1.25 1.45,0.13 2.76,0.77 3.83,1.86 0.22,0.23 0.43,0.46 0.61,0.67 0.07,0.06 0.14,0.12 0.21,0.19 0.94,0.94 1.83,1.95 2.61,3.03 0.05,0.05 0.09,0.11 0.13,0.17 0.15,-0.18 0.29,-0.35 0.44,-0.53 0.02,-0.03 0.04,-0.06 0.07,-0.09 0.81,-0.94 1.57,-1.93 2.28,-2.95 0.39,-0.57 0.61,-1.25 0.75,-1.92 0.28,-1.35 0.89,-2.43 1.9,-3.37 1.18,-1.08 2.61,-1.79 4.19,-2.08 1.21,-0.23 2.44,-0.21 3.64,0.02 0.69,0.13 1.36,0.29 2.03,0.49 0.05,0.02 0.1,0.04 0.15,0.05 0.17,0.05 0.34,0.1 0.51,0.16 0.56,-0.3 1.17,-0.52 1.83,-0.64l0.69 -0.13c0.27,-0.05 0.5,-0.07 0.75,-0.09 0.25,-0.04 0.5,-0.09 0.75,-0.14 1.03,-0.19 2.06,-0.42 3.08,-0.69 1.15,-0.3 2.3,-0.62 3.44,-0.95 0.65,-0.21 1.31,-0.41 1.97,-0.59 0.19,-0.2 0.4,-0.39 0.62,-0.58l0.46 -0.36c0.77,-0.63 1.55,-1.01 2.52,-1.23 1.37,-0.32 2.75,-0.4 4.06,-0.12 0.01,0 0.01,0 0.02,0 0.83,-0.27 1.65,-0.55 2.48,-0.82 1.22,-0.4 2.45,-0.78 3.68,-1.16 1.42,-0.45 2.86,-0.81 4.33,-1.09 0.62,-0.11 1.26,-0.21 1.89,-0.29 0.57,-0.06 1.14,-0.11 1.7,-0.14 0.92,-0.05 1.73,0.06 2.55,0.37l0.11 -0.11c1.77,-1.82 4.29,-2.39 6.67,-1.52l0.51 0.19c0.05,0.02 0.1,0.03 0.15,0.06 0.13,0.05 0.28,0.11 0.42,0.15 0.04,0.01 0.07,0.02 0.11,0.03 0.34,0.1 0.67,0.19 0.95,0.27 0.43,0.12 0.91,0.27 1.39,0.43 0.47,0.15 0.94,0.31 1.4,0.47 0.2,0.07 0.36,0.13 0.55,0.22l0.52 0.23c0.51,0.23 0.97,0.51 1.38,0.84 1.69,-2.95 4.19,-5.17 7.37,-6.47l0.64 -0.29c2.77,-1.24 5.99,-0.31 7.69,2.12 0.03,0.01 0.06,0.02 0.09,0.03 0.06,0.02 0.11,0.04 0.17,0.06l0.56 0.23c1.14,0.45 2,1.11 2.73,2.09 0.65,0.88 1.16,1.8 1.44,2.85 0.57,1.19 0.74,2.45 0.49,3.8 -0.3,1.64 -0.82,3.23 -1.79,4.6 -0.45,0.64 -0.94,1.25 -1.42,1.78 -0.02,0.03 -0.05,0.07 -0.08,0.1 -0.1,0.28 -0.22,0.54 -0.37,0.81l-0.28 0.52c-0.17,0.31 -0.35,0.59 -0.54,0.85 -0.27,1.43 -1,2.67 -2.04,3.58 -0.01,0.01 -0.02,0.03 -0.03,0.05 -0.11,0.52 -0.28,1 -0.53,1.51l-0.21 0.41c-0.08,0.16 -0.16,0.31 -0.25,0.45 0,0.01 0,0.01 0,0.01 -0.11,0.42 -0.22,0.83 -0.34,1.18 0,0.01 0,0.01 0,0.01 -0.08,1.21 -0.52,2.38 -1.31,3.4 -0.04,0.12 -0.08,0.25 -0.12,0.37 -0.14,0.49 -0.31,0.97 -0.48,1.46 -0.01,0.03 -0.02,0.06 -0.03,0.1 -0.18,0.47 -0.38,0.93 -0.62,1.37 -0.08,0.34 -0.18,0.66 -0.28,0.97 -0.14,0.42 -0.32,0.85 -0.52,1.26 -0.3,1.71 -0.89,3.37 -1.64,4.93 -0.07,0.36 -0.15,0.72 -0.26,1.08 -0.01,0.04 -0.02,0.07 -0.03,0.12 -0.12,0.37 -0.25,0.73 -0.39,1.09 -0.05,0.44 -0.14,0.83 -0.28,1.27 -0.27,0.79 -0.61,1.55 -1.06,2.27 -0.19,0.3 -0.39,0.6 -0.6,0.9 -0.06,0.09 -0.12,0.18 -0.19,0.27 -0.57,0.93 -1.27,1.61 -2.23,2.16l-0.73 0.42c-0.9,0.51 -1.78,0.77 -2.82,0.82 -5.22,0.25 -9.6,-2.26 -11.72,-7.08 -0.28,-0.66 -0.44,-1.25 -0.5,-1.96l-0.05 -0.51c-0.04,-0.51 -0.03,-0.96 0.04,-1.48 0.06,-0.38 0.11,-0.76 0.17,-1.15 0.06,-0.62 0.14,-1.23 0.24,-1.84 0.01,-0.04 0.01,-0.07 0.02,-0.11 0.17,-0.95 0.47,-1.86 0.9,-2.71 0.05,-0.19 0.1,-0.39 0.14,-0.58 0.27,-1.07 0.61,-2.14 0.95,-3.19 0.01,-0.02 0.02,-0.04 0.02,-0.06 -0.47,-0.62 -0.92,-1.26 -1.35,-1.92 -0.58,-0.89 -1.13,-1.82 -1.6,-2.78 -0.19,-0.38 -0.32,-0.72 -0.42,-1.12 -0.41,0.13 -0.82,0.21 -1.28,0.25 -0.09,0.01 -0.18,0.01 -0.23,0.02 -0.18,0.04 -0.4,0.08 -0.61,0.11 -0.76,0.15 -1.5,0.34 -2.24,0.57 -0.94,0.28 -1.88,0.6 -2.81,0.92 -0.04,0.01 -0.08,0.02 -0.12,0.03 -0.11,0.04 -0.21,0.07 -0.32,0.11 -0.06,0.26 -0.12,0.53 -0.19,0.79 -0.13,0.56 -0.26,1.13 -0.37,1.7 -0.1,0.52 -0.16,1.07 -0.21,1.6 -0.07,0.68 -0.21,1.26 -0.49,1.9 -0.12,0.28 -0.24,0.58 -0.32,0.88 -0.04,0.16 -0.05,0.36 -0.06,0.52 -0.06,0.97 -0.29,1.81 -0.75,2.65 -0.06,0.42 -0.12,0.83 -0.18,1.25l-0.04 0.5c-0.07,0.8 -0.26,1.5 -0.59,2.18 0,0.03 -0.01,0.06 -0.01,0.09l0.14 0.11c0.92,0.75 1.52,1.62 1.93,2.73 0.93,2.6 0.92,5.35 -0.43,7.79 -1.43,2.66 -3.99,4.18 -6.9,4.72 -0.16,0.03 -0.3,0.05 -0.46,0.07l-0.64 0.07c-1.36,0.15 -2.6,-0.1 -3.75,-0.75 -0.4,-0.12 -0.79,-0.27 -1.17,-0.46 -0.32,-0.08 -0.64,-0.18 -0.95,-0.3l-0.38 -0.12c-1.94,-0.64 -3.37,-2.07 -3.99,-3.92 -0.13,-0.18 -0.24,-0.38 -0.36,-0.57 -0.31,-0.55 -0.59,-1.11 -0.83,-1.69 -0.04,-0.07 -0.07,-0.14 -0.11,-0.22 -0.04,-0.04 -0.07,-0.08 -0.1,-0.13z"/>
  <path class="fil6" d="M510.91 129.02c-2.74,0.13 -4.63,-0.97 -5.66,-3.33l-0.05 -0.5c0.06,-0.39 0.12,-0.83 0.19,-1.31 0.05,-0.55 0.13,-1.08 0.21,-1.62 0.09,-0.53 0.31,-1.04 0.66,-1.51 0.04,-0.29 0.14,-0.74 0.3,-1.35 0.15,-0.61 0.43,-1.53 0.82,-2.77 0.32,-0.97 0.58,-1.74 0.77,-2.3 0.19,-0.58 0.36,-1.01 0.49,-1.32 -0.41,-0.49 -0.93,-0.94 -1.57,-1.36 -0.66,-0.82 -1.23,-1.61 -1.74,-2.38 -0.5,-0.77 -0.91,-1.47 -1.22,-2.11 -0.16,-0.71 -0.42,-1.44 -0.78,-2.16 -0.16,-0.38 -0.32,-0.75 -0.49,-1.13 -0.16,-0.38 -0.28,-0.78 -0.36,-1.2 -0.16,-0.2 -0.32,-0.45 -0.47,-0.77l-0.02 -0.56c0.12,-0.27 0.09,-0.6 -0.06,-1 -0.16,-0.39 -0.33,-0.8 -0.53,-1.19 -0.17,-0.38 -0.33,-0.78 -0.48,-1.21 -0.16,-0.43 -0.26,-0.86 -0.31,-1.28 -0.05,-0.43 -0.02,-0.87 0.11,-1.3 0.12,-0.42 0.4,-0.82 0.84,-1.18l0.39 -0.41 0.51 0.19c0.38,0.15 0.73,0.27 1.06,0.37 0.33,0.09 0.66,0.19 0.99,0.28 0.4,0.12 0.8,0.23 1.2,0.37 0.4,0.12 0.83,0.28 1.31,0.44l0.52 0.23 0.04 0.51c0.01,0.06 0.04,0.14 0.09,0.22 0.05,0.08 0.1,0.15 0.17,0.2l0.53 0.04 0.17 0.63 0.1 0.55c0.05,0.27 0.1,0.46 0.15,0.56 0.05,0.1 0.13,0.2 0.25,0.31l0.33 0.55c0.1,0.55 0.24,1.02 0.41,1.43 0.17,0.41 0.35,0.81 0.56,1.22 0.22,0.39 0.43,0.8 0.6,1.23 0.17,0.42 0.27,0.89 0.31,1.42 0.17,-0.12 0.32,-0.29 0.47,-0.51 0.06,-0.07 0.11,-0.15 0.17,-0.22 0.07,-0.08 0.14,-0.16 0.22,-0.23l2.39 -4.92 -0.2 -0.52 0.93 -1.31c0.26,-0.3 0.5,-0.6 0.73,-0.92 0.23,-0.3 0.4,-0.64 0.51,-1.01l0.21 -0.46c1.02,-2.07 2.57,-3.52 4.65,-4.34l0.74 -0.33 0.36 0.68c0.23,0.4 0.6,0.72 1.1,0.96 0.49,0.23 1.03,0.46 1.6,0.66l0.57 0.23c0.24,0.33 0.39,0.58 0.42,0.76 0.04,0.19 0.05,0.34 0.04,0.47l0.33 0.55c-0.17,0.94 -0.41,1.63 -0.73,2.09 -0.33,0.45 -0.67,0.89 -1.04,1.3 -0.28,0.33 -0.53,0.66 -0.76,0.98 -0.22,0.33 -0.37,0.68 -0.46,1.04l-0.28 0.52c-0.68,0.53 -1.07,1.2 -1.13,2l-0.07 0.67 -0.69 0.13c-0.03,0 -0.08,0.09 -0.18,0.24 -0.1,0.17 -0.22,0.53 -0.37,1.08 -0.2,0.42 -0.35,0.69 -0.43,0.81 -0.09,0.13 -0.16,0.23 -0.21,0.3 -0.03,0.17 -0.06,0.31 -0.08,0.44 -0.02,0.13 -0.05,0.29 -0.08,0.49l-0.2 0.41c-0.23,0.3 -0.38,0.57 -0.46,0.81 -0.08,0.26 -0.17,0.55 -0.27,0.88 -0.06,0.29 -0.15,0.6 -0.25,0.92 -0.1,0.31 -0.25,0.63 -0.48,0.96l0.18 0.48 -0.3 0.39c-0.2,0.25 -0.36,0.56 -0.49,0.92 -0.12,0.35 -0.25,0.71 -0.36,1.08 -0.11,0.39 -0.25,0.79 -0.39,1.19 -0.15,0.41 -0.36,0.79 -0.64,1.16 -0.11,0.58 -0.21,1.04 -0.33,1.38 -0.11,0.33 -0.32,0.75 -0.63,1.25 -0.1,1.52 -0.68,3.25 -1.73,5.17 0.03,0.34 -0.01,0.68 -0.11,1.03 -0.11,0.35 -0.23,0.68 -0.36,0.99 -0.04,0.13 -0.08,0.27 -0.13,0.42 -0.06,0.15 -0.09,0.26 -0.11,0.32l-0.04 0.53c-0.12,0.37 -0.26,0.68 -0.42,0.93 -0.16,0.25 -0.31,0.48 -0.46,0.7 -0.08,0.07 -0.15,0.16 -0.21,0.27 -0.06,0.11 -0.11,0.19 -0.16,0.26l-0.72 0.42z"/>
  <path class="fil6" d="M464.9 109.46c-0.08,-0.24 -0.17,-0.44 -0.29,-0.63 -0.1,-0.18 -0.23,-0.38 -0.37,-0.62 -0.21,-0.33 -0.42,-0.7 -0.63,-1.1 -0.19,-0.41 -0.35,-0.89 -0.45,-1.47 0,-0.31 0.04,-0.55 0.1,-0.7 0.06,-0.15 0.14,-0.29 0.21,-0.39l0.03 -0.86 0.68 -0.13c0.25,-0.01 0.5,-0.04 0.76,-0.09 0.26,-0.05 0.51,-0.09 0.75,-0.14 1.16,-0.21 2.33,-0.48 3.53,-0.79 1.19,-0.32 2.42,-0.66 3.67,-1.01 1.36,-0.45 2.84,-0.86 4.43,-1.25 0.09,-0.36 0.15,-0.6 0.18,-0.69 0.03,-0.11 0.06,-0.22 0.1,-0.35l0.45 -0.37c0.69,-0.16 1.19,-0.17 1.5,-0.02 0.31,0.15 0.56,0.3 0.74,0.45 0.78,-0.21 1.57,-0.43 2.37,-0.7 0.8,-0.26 1.63,-0.52 2.49,-0.81 1.18,-0.38 2.38,-0.76 3.6,-1.15 1.22,-0.37 2.41,-0.68 3.59,-0.9 0.52,-0.09 1.01,-0.17 1.47,-0.22 0.46,-0.05 0.91,-0.09 1.35,-0.11l0.62 0.31c0.16,0.19 0.35,0.36 0.57,0.5 0.21,0.15 0.45,0.29 0.74,0.43 0.52,0.29 1.05,0.65 1.59,1.11 0.54,0.47 0.85,1.24 0.93,2.33l-0.14 0.5c-0.11,0.14 -0.23,0.29 -0.4,0.44l-0.34 0.69 -0.5 0.09c-0.3,0.06 -0.52,0.12 -0.67,0.19 -0.14,0.07 -0.31,0.18 -0.51,0.31 -0.11,0.09 -0.23,0.16 -0.38,0.23 -0.14,0.08 -0.3,0.16 -0.47,0.26 -0.34,0.03 -0.6,0.06 -0.78,0.1 -0.18,0.03 -0.4,0.07 -0.64,0.11 -0.91,0.17 -1.88,0.42 -2.93,0.73 -1.03,0.32 -2.04,0.66 -3.01,0.99 -0.71,0.23 -1.4,0.44 -2.05,0.64 -0.66,0.2 -1.25,0.38 -1.78,0.54 -0.16,0.85 -0.3,1.6 -0.44,2.25 -0.13,0.65 -0.27,1.31 -0.43,1.97 -0.16,0.65 -0.3,1.31 -0.43,1.98 -0.13,0.67 -0.22,1.4 -0.3,2.2 -0.26,0.61 -0.47,1.19 -0.62,1.74 -0.15,0.54 -0.23,1.15 -0.27,1.81 -0.36,0.61 -0.59,1.23 -0.67,1.87 -0.08,0.64 -0.16,1.2 -0.23,1.64l-0.06 0.72c-0.17,0.26 -0.27,0.44 -0.29,0.58 -0.02,0.12 -0.08,0.28 -0.18,0.46 -0.02,0.4 -0.06,0.8 -0.15,1.2 -0.03,0.16 -0.06,0.33 -0.09,0.51 -0.03,0.18 -0.02,0.31 0.02,0.39 0,0.35 -0.04,0.62 -0.12,0.83 0.03,0.18 0.05,0.37 0.05,0.55 0.01,0.19 0.01,0.38 0.01,0.57 -0.02,0.22 -0.03,0.42 -0.02,0.59 -0.01,0.17 0.04,0.33 0.13,0.47 0.11,0.11 0.22,0.21 0.34,0.31 0.11,0.11 0.21,0.24 0.31,0.42 0.07,0.05 0.16,0.07 0.25,0.09 0.1,0.01 0.18,0.04 0.26,0.09 0.28,0.17 0.53,0.25 0.74,0.24l0.56 0.46c0.38,1.07 0.38,1.94 -0.02,2.64 -0.42,0.81 -1.27,1.32 -2.54,1.56l-0.65 0.07c-0.25,-0.17 -0.4,-0.29 -0.44,-0.34 -0.29,-0.07 -0.54,-0.13 -0.74,-0.17 -0.19,-0.04 -0.39,-0.15 -0.57,-0.33 -0.08,-0.05 -0.16,-0.08 -0.25,-0.08 -0.1,0 -0.18,-0.02 -0.26,-0.07 -0.31,-0.03 -0.58,-0.1 -0.78,-0.19l-0.55 -0.18c-0.03,-0.3 -0.05,-0.52 -0.07,-0.64 -0.31,-0.29 -0.57,-0.62 -0.77,-0.98 -0.22,-0.37 -0.41,-0.76 -0.58,-1.17 -0.15,-0.32 -0.29,-0.61 -0.42,-0.87 -0.12,-0.26 -0.28,-0.47 -0.48,-0.66 -0.45,-2.11 -0.58,-3.94 -0.39,-5.46 0.18,-1.53 0.42,-3.02 0.71,-4.49 0.17,-0.78 0.32,-1.58 0.45,-2.39 0.13,-0.81 0.24,-1.62 0.3,-2.46l0.41 -0.59c0.18,-0.22 0.3,-0.36 0.35,-0.39 -0.08,-0.4 -0.07,-0.8 0.01,-1.21 0.08,-0.41 0.18,-0.83 0.29,-1.25 0.07,-0.27 0.14,-0.53 0.2,-0.79 0.07,-0.26 0.09,-0.49 0.09,-0.68 -0.21,0.04 -0.4,0.08 -0.57,0.13 -0.16,0.05 -0.33,0.1 -0.5,0.17 -0.38,0.16 -0.76,0.27 -1.12,0.34 -0.27,0.05 -0.47,0.07 -0.6,0.07 -0.22,0.16 -0.43,0.28 -0.65,0.33 -0.2,0.06 -0.41,0.1 -0.63,0.14l-0.54 0.11 -0.55 0.1c-0.36,0.06 -0.64,0.16 -0.84,0.29 -0.42,0.08 -0.7,0.13 -0.82,0.15 -0.12,0.02 -0.25,0.05 -0.41,0.08l-0.54 0.1 -0.55 0.1c-0.24,0.05 -0.52,0.07 -0.83,0.08 -0.31,0.02 -0.65,-0.04 -1.02,-0.15l-0.39 -0.31c-0.24,-0.3 -0.44,-0.45 -0.6,-0.46l-0.53 -0.04 -0.09 -0.5z"/>
  <path class="fil6" d="M427.5 143.63c-0.3,0.06 -0.78,0.1 -1.43,0.12 -0.59,-0.42 -1.15,-1.05 -1.69,-1.87 -0.55,-0.82 -1.01,-1.73 -1.41,-2.71 -0.38,-0.98 -0.66,-1.98 -0.83,-3 -0.18,-1.02 -0.17,-1.95 0.02,-2.8 -0.01,-0.03 0.07,-0.42 0.22,-1.17 0.16,-0.76 0.37,-1.71 0.63,-2.88 0.25,-1.15 0.55,-2.45 0.88,-3.88 0.33,-1.43 0.66,-2.83 1,-4.21 0.34,-1.39 0.68,-2.65 1.02,-3.79 0.33,-1.15 0.65,-2.05 0.93,-2.69 0.19,-0.48 0.37,-0.94 0.53,-1.38 0.15,-0.43 0.31,-0.83 0.45,-1.21 0.24,-0.61 0.45,-1.17 0.65,-1.69 0.2,-0.53 0.44,-1.02 0.72,-1.46 0.28,-0.44 0.61,-0.85 0.98,-1.21 0.36,-0.38 0.84,-0.72 1.41,-1.04 0.39,0.08 0.74,0.18 1.04,0.29 0.3,0.12 0.58,0.28 0.84,0.48l0.25 0.61c0.11,0.21 0.23,0.33 0.38,0.38 0.15,0.05 0.27,0.07 0.36,0.05 0.42,0.03 0.78,0.06 1.08,0.11 0.31,0.06 0.63,0.06 0.97,0.03 0.16,0.16 0.31,0.32 0.45,0.49 0.14,0.15 0.28,0.31 0.43,0.43 0.77,0.77 1.44,1.53 1.98,2.27 0.54,0.75 0.71,1.64 0.49,2.69l0.14 0.49c0.2,0.18 0.31,0.36 0.35,0.55 0.03,0.18 0.05,0.44 0.05,0.79 0.01,0.24 0.04,0.52 0.08,0.81 0.03,0.29 0.13,0.59 0.29,0.91l0.38 0.31c0.53,0.15 1.02,0.18 1.48,0.09 0.6,-0.11 1.13,-0.34 1.56,-0.71 0.44,-0.36 0.84,-0.72 1.21,-1.07 0.29,-0.31 0.57,-0.56 0.83,-0.77 0.26,-0.2 0.52,-0.36 0.78,-0.47 0.53,-0.73 1.01,-1.37 1.45,-1.94 0.45,-0.57 0.91,-1.15 1.4,-1.74 0.93,-1.09 1.81,-2.24 2.65,-3.44 0.85,-1.21 1.43,-2.63 1.76,-4.26 0.3,-0.27 0.65,-0.45 1.08,-0.53 0.42,-0.08 0.86,-0.07 1.31,0.01 0.46,0.09 0.93,0.2 1.39,0.34 0.1,0.04 0.19,0.07 0.27,0.09 0.08,0.01 0.18,0.04 0.28,0.09 0.06,0.33 0.25,0.61 0.57,0.83 0.18,0.1 0.3,0.15 0.37,0.17 0.06,0.02 0.13,0.04 0.2,0.06 0.27,0.1 0.49,0.2 0.69,0.29 0.18,0.09 0.35,0.24 0.48,0.43 0.42,0.77 0.99,1.32 1.71,1.66 0.01,0.34 0.09,0.66 0.23,0.97 0.15,0.3 0.32,0.59 0.49,0.87 0.09,0.11 0.16,0.22 0.21,0.32 0.05,0.1 0.12,0.21 0.21,0.36l-1.02 0.09 0.32 0.98c0.19,0.5 0.26,1.08 0.21,1.75 -0.05,0.67 -0.15,1.2 -0.29,1.61 0.23,0.9 0.39,1.61 0.49,2.15 0.1,0.53 0.16,1.02 0.18,1.49 0.03,0.47 0.01,0.92 -0.05,1.35 -0.06,0.44 -0.16,0.9 -0.28,1.4 0.54,2.28 0.67,4.44 0.37,6.47 -0.29,2.03 -0.66,3.96 -1.11,5.77 -0.05,0.23 -0.11,0.44 -0.16,0.64 -0.06,0.19 -0.11,0.4 -0.13,0.59 -0.32,0.15 -0.6,0.32 -0.85,0.48 -0.25,0.18 -0.48,0.37 -0.7,0.56 -0.29,0.27 -0.59,0.51 -0.9,0.7 -0.31,0.21 -0.65,0.34 -1.01,0.41 -1.66,-0.79 -2.75,-2.49 -3.28,-5.09 -0.53,-2.6 -0.6,-6.03 -0.19,-10.28 0.18,-0.19 0.23,-0.43 0.15,-0.73l-0.1 -0.5 -0.46 0.03c-0.15,0.03 -0.29,0.07 -0.4,0.13 -0.12,0.05 -0.18,0.21 -0.2,0.46 -0.84,0.88 -1.76,1.8 -2.76,2.75 -1,0.95 -2.05,1.86 -3.15,2.7 -1.09,0.85 -2.24,1.59 -3.42,2.24 -1.19,0.64 -2.37,1.07 -3.55,1.29 -3.04,0.57 -5.62,-0.55 -7.74,-3.36l-0.56 -0.74 -0.32 0.81c-0.06,0.16 -0.16,0.5 -0.31,0.97 -0.15,0.49 -0.28,1.04 -0.4,1.66 -0.12,0.62 -0.2,1.25 -0.26,1.88 -0.05,0.64 -0.01,1.18 0.14,1.62 -0.31,0.41 -0.59,0.85 -0.86,1.35 -0.27,0.48 -0.43,1.02 -0.49,1.59 -0.03,0.17 -0.01,0.31 0.04,0.44 0.05,0.13 0.13,0.27 0.22,0.4 0.01,0.23 -0.03,0.39 -0.1,0.5 -0.07,0.11 -0.17,0.21 -0.26,0.33 -0.13,0.18 -0.26,0.36 -0.37,0.56 -0.13,0.19 -0.22,0.41 -0.31,0.65 -0.03,0.19 -0.03,0.39 -0.03,0.59 0.01,0.21 0.01,0.38 0.01,0.54 0.06,0.33 0.06,0.57 -0.01,0.71 -0.19,0.69 -0.36,1.27 -0.5,1.72 -0.15,0.44 -0.32,0.8 -0.49,1.05 -0.17,0.25 -0.37,0.44 -0.58,0.55 -0.21,0.12 -0.48,0.21 -0.78,0.27z"/>
  <rect class="fil7 str2" x="15.65" y="130.96" width="383.94" height="6.33" rx="2.89" ry="3.16"/>
 </g>
</svg>
